<svg xmlns="http://www.w3.org/2000/svg" width="1024" height="1024" viewBox="0 0 1024 1024" role="img" aria-label="transparent logo">
  <path d="M 855.91 503.67 L 839.72 495.57 L 742.62 544.13 L 685.98 560.31 L 669.79 544.13 L 677.89 398.47 L 669.79 382.29 L 645.52 374.20 L 629.33 390.38 L 621.24 438.93 L 605.06 463.21 L 596.97 495.57 L 564.60 536.03 L 548.41 536.03 L 516.05 495.57 L 516.05 463.21 L 507.95 455.11 L 507.95 382.29 L 572.69 333.74 L 596.97 325.64 L 629.33 293.28 L 621.24 269.00 L 588.87 269.00 L 540.32 293.28 L 467.49 349.92 L 435.13 366.10 L 321.84 463.21 L 281.38 479.39 L 273.29 471.30 L 273.29 341.83 L 257.10 333.74 L 232.83 341.83 L 224.74 349.92 L 224.74 463.21 L 232.83 471.30 L 224.74 511.76 L 200.46 536.03 L 168.09 552.22 L 168.09 584.59 L 184.28 600.77 L 232.83 584.59 L 249.01 608.86 L 257.10 649.32 L 281.38 665.51 L 297.56 657.41 L 289.47 592.68 L 305.66 576.49 L 402.76 576.49 L 410.85 568.40 L 435.13 568.40 L 443.22 576.49 L 443.22 600.77 L 427.03 633.14 L 410.85 722.15 L 427.03 746.43 L 443.22 746.43 L 459.40 722.15 L 467.49 625.05 L 491.77 560.31 L 532.23 584.59 L 564.60 584.59 L 621.24 544.13 L 629.33 552.22 L 629.33 608.86 L 637.43 625.05 L 669.79 633.14 L 718.34 592.68 L 823.54 544.13 L 855.91 511.76 Z" fill="#000000"/>
</svg>
